<svg width="586.1093383789063px" height="212px" xmlns="http://www.w3.org/2000/svg" viewBox="-43.054669189453136 -31 586.1093383789063 212" style="background: rgba(40, 41, 47, 0);" preserveAspectRatio="xMidYMid"><defs><filter id="editing-hole" x="-100%" y="-100%" width="300%" height="300%"><feFlood flood-color="#000000" result="black"></feFlood><feMorphology operator="dilate" radius="2" in="SourceGraphic" result="erode"></feMorphology><feGaussianBlur in="erode" stdDeviation="4" result="blur"></feGaussianBlur><feOffset in="blur" dx="2" dy="2" result="offset"></feOffset><feComposite operator="atop" in="offset" in2="black" result="merge"></feComposite><feComposite operator="in" in="merge" in2="SourceGraphic" result="inner-shadow"></feComposite></filter></defs><g filter="url(#editing-hole)"><g transform="translate(43.8199816942215, 138.95999765396118)"><path d="M61.36-56.55L61.36-56.55L61.36-56.55Q57.98-36.01 57.98-23.01L57.98-23.01L57.98-23.01Q57.98-10.01 59.02 0L59.02 0L30.68 0L30.68 0Q26.26-20.67 26.26-44.46L26.26-44.46L26.26-44.46Q26.26-48.49 26.52-56.55L26.52-56.55L26.52-56.55Q15.47-53.30 13-41.60L13-41.60L0.13-42.38L4.81-65L91.26-65L91.26-65Q88.66-50.70 85.28-41.60L85.28-41.60L72.15-42.38L72.15-42.38Q72.67-44.46 72.67-46.54L72.67-46.54L72.67-46.54Q72.67-51.61 69.55-54.08L69.55-54.08L69.55-54.08Q66.43-56.55 61.36-56.55ZM161.46-1.04L161.46-1.04L161.46 0L131.30 0L131.30 0Q130.78-7.15 129.09-15.34L129.09-15.34L129.09-15.34Q119.99-6.24 110.89 0L110.89 0L80.60 0L80.60 0Q79.69-5.33 79.69-14.11L79.69-14.11L79.69-14.11Q79.69-22.88 82.29-31.72L82.29-31.72L82.29-31.72Q91.65-34.45 100.30-40.95L100.30-40.95L100.30-40.95Q108.94-47.45 112.84-54.99L112.84-54.99L112.84-54.99Q109.20-60.71 105.43-65L105.43-65L148.59-65L148.59-65Q161.46-36.79 161.46-1.04ZM126.75-24.83L126.75-24.83L126.75-24.83Q123.50-36.01 117.91-46.67L117.91-46.67L117.91-46.67Q111.80-28.73 110.89-12.74L110.89-12.74L110.89-12.74Q120.51-17.94 126.75-24.83ZM237.90-65.91L237.90-65.91L242.19-65.91L242.19-65.91Q250.51-65.91 254.54-67.86L254.54-67.86L254.54-67.86Q248.82-59.41 243.49-53.17L243.49-53.17L241.41-53.17L241.41-53.17Q234.78-53.17 228.54-55.25L228.54-55.25L228.54-55.25Q219.70-47.97 214.37-35.88L214.37-35.88L214.37-35.88Q228.15-32.37 245.05-31.72L245.05-31.72L245.05-31.72Q248.95-21.84 250.38 0L250.38 0L216.71 0L216.71 0Q214.50-9.62 210.02-17.75L210.02-17.75L210.02-17.75Q205.53-25.87 200.72-28.86L200.72-28.86L200.72-28.86Q199.81-18.20 199.81-11.70L199.81-11.70L199.81-11.70Q199.81-5.20 200.20 0L200.20 0L171.60 0L171.60 0Q169.13-19.11 169.13-32.30L169.13-32.30L169.13-32.30Q169.13-45.50 171.08-65L171.08-65L207.22-65L207.22-65Q203.32-48.88 201.89-37.96L201.89-37.96L201.89-37.96Q207.74-47.58 214.18-54.15L214.18-54.15L214.18-54.15Q220.61-60.71 229.45-65.26L229.45-65.26L229.45-65.26Q232.83-65.91 237.90-65.91ZM341.51-62.53L341.51-62.53L341.51-62.53Q337.09-61.49 334.10-61.49L334.10-61.49L334.10-61.49Q331.11-61.49 328.38-61.88L328.38-61.88L328.38-61.88Q324.35-57.07 321.10-49.01L321.10-49.01L321.10-49.01Q317.85-40.95 316.23-34.58L316.23-34.58L316.23-34.58Q314.60-28.21 312.65-18.98L312.65-18.98L312.65-18.98Q302.77 28.08 292.89 47.84L292.89 47.84L292.89 47.84Q286.39 49.79 276.77 51.61L276.77 51.61L276.77 51.61Q289.77 29.38 297.83 0L297.83 0L270.92 0L270.92 0Q260.65-33.28 260.26-65L260.26-65L298.22-65L298.22-65Q295.49-52.91 295.49-39.33L295.49-39.33L295.49-39.33Q295.49-25.74 299.91-8.32L299.91-8.32L299.91-8.32Q300.82-11.83 303.03-20.61L303.03-20.61L303.03-20.61Q305.24-29.38 306.28-33.15L306.28-33.15L306.28-33.15Q307.32-36.92 309.47-43.81L309.47-43.81L309.47-43.81Q311.61-50.70 313.37-54.15L313.37-54.15L313.37-54.15Q315.12-57.59 317.72-61.88L317.72-61.88L317.72-61.88Q322.40-69.55 330.07-72.28L330.07-72.28L330.07-72.28Q332.28-72.93 339.04-73.64L339.04-73.64L339.04-73.64Q345.80-74.36 348.79-76.31L348.79-76.31L348.79-76.31Q345.28-68.25 341.51-62.53ZM346.71-0.39L346.71-0.39L346.71-0.39Q335.14-15.21 335.14-30.81L335.14-30.81L335.14-30.81Q335.14-46.41 348.14-57.20L348.14-57.20L348.14-57.20Q361.14-67.99 381.42-67.99L381.42-67.99L381.42-67.99Q392.21-67.99 402.87-64.74L402.87-64.74L402.87-64.74Q412.23-52.91 412.23-39.39L412.23-39.39L412.23-39.39Q412.23-22.36 398.32-9.75L398.32-9.75L398.32-9.75Q384.41 2.86 364.65 2.86L364.65 2.86L364.65 2.86Q356.20 2.86 346.71-0.39ZM366.47-56.68L366.47-56.68L366.47-56.68Q361.92-48.88 361.92-38.35L361.92-38.35L361.92-38.35Q361.92-27.82 366.53-18.91L366.53-18.91L366.53-18.91Q371.15-10.01 379.21-6.11L379.21-6.11L379.21-6.11Q385.32-13.91 385.32-24.18L385.32-24.18L385.32-24.18Q385.32-34.45 380.31-43.29L380.31-43.29L380.31-43.29Q375.31-52.13 366.47-56.68Z" fill="#ffffff"></path></g></g><style>text {
  font-size: 64px;
  font-family: Arial Black;
  dominant-baseline: central;
  text-anchor: middle;
}</style></svg>